<?xml version="1.0" standalone="no"?>
<svg xmlns="http://www.w3.org/2000/svg" version="1.1" width="1189" height="1189">
	<!-- Created with https://api.qrserver.com (QR Code API, see goQR.me/api for information) -->
	<title>QR Code</title>
	<desc>https://notkobi3.github.io/Bill-hot-dog-demo/</desc>
	<rect style="fill:rgb(255, 255, 255);fill-opacity:1" x="0" y="0" width="1189" height="1189" />
	<g id="elements">
		<path style="fill:rgb(0, 0, 0)" d="M 0,0 l 29,0 0,29 -29,0 z M 29,0 l 29,0 0,29 -29,0 z M 58,0 l 29,0 0,29 -29,0 z M 87,0 l 29,0 0,29 -29,0 z M 116,0 l 29,0 0,29 -29,0 z M 145,0 l 29,0 0,29 -29,0 z M 174,0 l 29,0 0,29 -29,0 z M 232,0 l 29,0 0,29 -29,0 z M 261,0 l 29,0 0,29 -29,0 z M 319,0 l 29,0 0,29 -29,0 z M 348,0 l 29,0 0,29 -29,0 z M 377,0 l 29,0 0,29 -29,0 z M 406,0 l 29,0 0,29 -29,0 z M 464,0 l 29,0 0,29 -29,0 z M 493,0 l 29,0 0,29 -29,0 z M 522,0 l 29,0 0,29 -29,0 z M 696,0 l 29,0 0,29 -29,0 z M 725,0 l 29,0 0,29 -29,0 z M 812,0 l 29,0 0,29 -29,0 z M 870,0 l 29,0 0,29 -29,0 z M 899,0 l 29,0 0,29 -29,0 z M 928,0 l 29,0 0,29 -29,0 z M 986,0 l 29,0 0,29 -29,0 z M 1015,0 l 29,0 0,29 -29,0 z M 1044,0 l 29,0 0,29 -29,0 z M 1073,0 l 29,0 0,29 -29,0 z M 1102,0 l 29,0 0,29 -29,0 z M 1131,0 l 29,0 0,29 -29,0 z M 1160,0 l 29,0 0,29 -29,0 z M 0,29 l 29,0 0,29 -29,0 z M 174,29 l 29,0 0,29 -29,0 z M 232,29 l 29,0 0,29 -29,0 z M 290,29 l 29,0 0,29 -29,0 z M 377,29 l 29,0 0,29 -29,0 z M 406,29 l 29,0 0,29 -29,0 z M 435,29 l 29,0 0,29 -29,0 z M 580,29 l 29,0 0,29 -29,0 z M 609,29 l 29,0 0,29 -29,0 z M 638,29 l 29,0 0,29 -29,0 z M 725,29 l 29,0 0,29 -29,0 z M 754,29 l 29,0 0,29 -29,0 z M 783,29 l 29,0 0,29 -29,0 z M 812,29 l 29,0 0,29 -29,0 z M 870,29 l 29,0 0,29 -29,0 z M 928,29 l 29,0 0,29 -29,0 z M 986,29 l 29,0 0,29 -29,0 z M 1160,29 l 29,0 0,29 -29,0 z M 0,58 l 29,0 0,29 -29,0 z M 58,58 l 29,0 0,29 -29,0 z M 87,58 l 29,0 0,29 -29,0 z M 116,58 l 29,0 0,29 -29,0 z M 174,58 l 29,0 0,29 -29,0 z M 232,58 l 29,0 0,29 -29,0 z M 290,58 l 29,0 0,29 -29,0 z M 319,58 l 29,0 0,29 -29,0 z M 348,58 l 29,0 0,29 -29,0 z M 406,58 l 29,0 0,29 -29,0 z M 464,58 l 29,0 0,29 -29,0 z M 580,58 l 29,0 0,29 -29,0 z M 638,58 l 29,0 0,29 -29,0 z M 667,58 l 29,0 0,29 -29,0 z M 696,58 l 29,0 0,29 -29,0 z M 725,58 l 29,0 0,29 -29,0 z M 783,58 l 29,0 0,29 -29,0 z M 812,58 l 29,0 0,29 -29,0 z M 899,58 l 29,0 0,29 -29,0 z M 928,58 l 29,0 0,29 -29,0 z M 986,58 l 29,0 0,29 -29,0 z M 1044,58 l 29,0 0,29 -29,0 z M 1073,58 l 29,0 0,29 -29,0 z M 1102,58 l 29,0 0,29 -29,0 z M 1160,58 l 29,0 0,29 -29,0 z M 0,87 l 29,0 0,29 -29,0 z M 58,87 l 29,0 0,29 -29,0 z M 87,87 l 29,0 0,29 -29,0 z M 116,87 l 29,0 0,29 -29,0 z M 174,87 l 29,0 0,29 -29,0 z M 319,87 l 29,0 0,29 -29,0 z M 348,87 l 29,0 0,29 -29,0 z M 435,87 l 29,0 0,29 -29,0 z M 464,87 l 29,0 0,29 -29,0 z M 493,87 l 29,0 0,29 -29,0 z M 551,87 l 29,0 0,29 -29,0 z M 580,87 l 29,0 0,29 -29,0 z M 638,87 l 29,0 0,29 -29,0 z M 667,87 l 29,0 0,29 -29,0 z M 754,87 l 29,0 0,29 -29,0 z M 870,87 l 29,0 0,29 -29,0 z M 899,87 l 29,0 0,29 -29,0 z M 986,87 l 29,0 0,29 -29,0 z M 1044,87 l 29,0 0,29 -29,0 z M 1073,87 l 29,0 0,29 -29,0 z M 1102,87 l 29,0 0,29 -29,0 z M 1160,87 l 29,0 0,29 -29,0 z M 0,116 l 29,0 0,29 -29,0 z M 58,116 l 29,0 0,29 -29,0 z M 87,116 l 29,0 0,29 -29,0 z M 116,116 l 29,0 0,29 -29,0 z M 174,116 l 29,0 0,29 -29,0 z M 290,116 l 29,0 0,29 -29,0 z M 377,116 l 29,0 0,29 -29,0 z M 406,116 l 29,0 0,29 -29,0 z M 493,116 l 29,0 0,29 -29,0 z M 522,116 l 29,0 0,29 -29,0 z M 696,116 l 29,0 0,29 -29,0 z M 725,116 l 29,0 0,29 -29,0 z M 812,116 l 29,0 0,29 -29,0 z M 841,116 l 29,0 0,29 -29,0 z M 899,116 l 29,0 0,29 -29,0 z M 986,116 l 29,0 0,29 -29,0 z M 1044,116 l 29,0 0,29 -29,0 z M 1073,116 l 29,0 0,29 -29,0 z M 1102,116 l 29,0 0,29 -29,0 z M 1160,116 l 29,0 0,29 -29,0 z M 0,145 l 29,0 0,29 -29,0 z M 174,145 l 29,0 0,29 -29,0 z M 232,145 l 29,0 0,29 -29,0 z M 261,145 l 29,0 0,29 -29,0 z M 377,145 l 29,0 0,29 -29,0 z M 406,145 l 29,0 0,29 -29,0 z M 464,145 l 29,0 0,29 -29,0 z M 522,145 l 29,0 0,29 -29,0 z M 551,145 l 29,0 0,29 -29,0 z M 667,145 l 29,0 0,29 -29,0 z M 696,145 l 29,0 0,29 -29,0 z M 754,145 l 29,0 0,29 -29,0 z M 783,145 l 29,0 0,29 -29,0 z M 841,145 l 29,0 0,29 -29,0 z M 986,145 l 29,0 0,29 -29,0 z M 1160,145 l 29,0 0,29 -29,0 z M 0,174 l 29,0 0,29 -29,0 z M 29,174 l 29,0 0,29 -29,0 z M 58,174 l 29,0 0,29 -29,0 z M 87,174 l 29,0 0,29 -29,0 z M 116,174 l 29,0 0,29 -29,0 z M 145,174 l 29,0 0,29 -29,0 z M 174,174 l 29,0 0,29 -29,0 z M 232,174 l 29,0 0,29 -29,0 z M 290,174 l 29,0 0,29 -29,0 z M 348,174 l 29,0 0,29 -29,0 z M 406,174 l 29,0 0,29 -29,0 z M 464,174 l 29,0 0,29 -29,0 z M 522,174 l 29,0 0,29 -29,0 z M 580,174 l 29,0 0,29 -29,0 z M 638,174 l 29,0 0,29 -29,0 z M 696,174 l 29,0 0,29 -29,0 z M 754,174 l 29,0 0,29 -29,0 z M 812,174 l 29,0 0,29 -29,0 z M 870,174 l 29,0 0,29 -29,0 z M 928,174 l 29,0 0,29 -29,0 z M 986,174 l 29,0 0,29 -29,0 z M 1015,174 l 29,0 0,29 -29,0 z M 1044,174 l 29,0 0,29 -29,0 z M 1073,174 l 29,0 0,29 -29,0 z M 1102,174 l 29,0 0,29 -29,0 z M 1131,174 l 29,0 0,29 -29,0 z M 1160,174 l 29,0 0,29 -29,0 z M 232,203 l 29,0 0,29 -29,0 z M 348,203 l 29,0 0,29 -29,0 z M 377,203 l 29,0 0,29 -29,0 z M 464,203 l 29,0 0,29 -29,0 z M 493,203 l 29,0 0,29 -29,0 z M 522,203 l 29,0 0,29 -29,0 z M 580,203 l 29,0 0,29 -29,0 z M 609,203 l 29,0 0,29 -29,0 z M 667,203 l 29,0 0,29 -29,0 z M 696,203 l 29,0 0,29 -29,0 z M 725,203 l 29,0 0,29 -29,0 z M 754,203 l 29,0 0,29 -29,0 z M 870,203 l 29,0 0,29 -29,0 z M 899,203 l 29,0 0,29 -29,0 z M 58,232 l 29,0 0,29 -29,0 z M 87,232 l 29,0 0,29 -29,0 z M 116,232 l 29,0 0,29 -29,0 z M 174,232 l 29,0 0,29 -29,0 z M 232,232 l 29,0 0,29 -29,0 z M 261,232 l 29,0 0,29 -29,0 z M 348,232 l 29,0 0,29 -29,0 z M 377,232 l 29,0 0,29 -29,0 z M 464,232 l 29,0 0,29 -29,0 z M 522,232 l 29,0 0,29 -29,0 z M 551,232 l 29,0 0,29 -29,0 z M 609,232 l 29,0 0,29 -29,0 z M 638,232 l 29,0 0,29 -29,0 z M 696,232 l 29,0 0,29 -29,0 z M 754,232 l 29,0 0,29 -29,0 z M 783,232 l 29,0 0,29 -29,0 z M 841,232 l 29,0 0,29 -29,0 z M 957,232 l 29,0 0,29 -29,0 z M 986,232 l 29,0 0,29 -29,0 z M 1015,232 l 29,0 0,29 -29,0 z M 1102,232 l 29,0 0,29 -29,0 z M 1131,232 l 29,0 0,29 -29,0 z M 1160,232 l 29,0 0,29 -29,0 z M 0,261 l 29,0 0,29 -29,0 z M 58,261 l 29,0 0,29 -29,0 z M 145,261 l 29,0 0,29 -29,0 z M 290,261 l 29,0 0,29 -29,0 z M 319,261 l 29,0 0,29 -29,0 z M 348,261 l 29,0 0,29 -29,0 z M 377,261 l 29,0 0,29 -29,0 z M 406,261 l 29,0 0,29 -29,0 z M 522,261 l 29,0 0,29 -29,0 z M 551,261 l 29,0 0,29 -29,0 z M 580,261 l 29,0 0,29 -29,0 z M 638,261 l 29,0 0,29 -29,0 z M 667,261 l 29,0 0,29 -29,0 z M 725,261 l 29,0 0,29 -29,0 z M 754,261 l 29,0 0,29 -29,0 z M 812,261 l 29,0 0,29 -29,0 z M 841,261 l 29,0 0,29 -29,0 z M 870,261 l 29,0 0,29 -29,0 z M 899,261 l 29,0 0,29 -29,0 z M 928,261 l 29,0 0,29 -29,0 z M 986,261 l 29,0 0,29 -29,0 z M 1015,261 l 29,0 0,29 -29,0 z M 1044,261 l 29,0 0,29 -29,0 z M 1102,261 l 29,0 0,29 -29,0 z M 1131,261 l 29,0 0,29 -29,0 z M 29,290 l 29,0 0,29 -29,0 z M 58,290 l 29,0 0,29 -29,0 z M 145,290 l 29,0 0,29 -29,0 z M 174,290 l 29,0 0,29 -29,0 z M 232,290 l 29,0 0,29 -29,0 z M 290,290 l 29,0 0,29 -29,0 z M 319,290 l 29,0 0,29 -29,0 z M 522,290 l 29,0 0,29 -29,0 z M 551,290 l 29,0 0,29 -29,0 z M 638,290 l 29,0 0,29 -29,0 z M 667,290 l 29,0 0,29 -29,0 z M 696,290 l 29,0 0,29 -29,0 z M 725,290 l 29,0 0,29 -29,0 z M 783,290 l 29,0 0,29 -29,0 z M 812,290 l 29,0 0,29 -29,0 z M 841,290 l 29,0 0,29 -29,0 z M 928,290 l 29,0 0,29 -29,0 z M 957,290 l 29,0 0,29 -29,0 z M 1015,290 l 29,0 0,29 -29,0 z M 1131,290 l 29,0 0,29 -29,0 z M 29,319 l 29,0 0,29 -29,0 z M 58,319 l 29,0 0,29 -29,0 z M 87,319 l 29,0 0,29 -29,0 z M 232,319 l 29,0 0,29 -29,0 z M 319,319 l 29,0 0,29 -29,0 z M 464,319 l 29,0 0,29 -29,0 z M 493,319 l 29,0 0,29 -29,0 z M 522,319 l 29,0 0,29 -29,0 z M 609,319 l 29,0 0,29 -29,0 z M 638,319 l 29,0 0,29 -29,0 z M 667,319 l 29,0 0,29 -29,0 z M 812,319 l 29,0 0,29 -29,0 z M 870,319 l 29,0 0,29 -29,0 z M 899,319 l 29,0 0,29 -29,0 z M 928,319 l 29,0 0,29 -29,0 z M 1015,319 l 29,0 0,29 -29,0 z M 1073,319 l 29,0 0,29 -29,0 z M 1160,319 l 29,0 0,29 -29,0 z M 29,348 l 29,0 0,29 -29,0 z M 58,348 l 29,0 0,29 -29,0 z M 174,348 l 29,0 0,29 -29,0 z M 232,348 l 29,0 0,29 -29,0 z M 261,348 l 29,0 0,29 -29,0 z M 348,348 l 29,0 0,29 -29,0 z M 377,348 l 29,0 0,29 -29,0 z M 406,348 l 29,0 0,29 -29,0 z M 435,348 l 29,0 0,29 -29,0 z M 464,348 l 29,0 0,29 -29,0 z M 522,348 l 29,0 0,29 -29,0 z M 551,348 l 29,0 0,29 -29,0 z M 580,348 l 29,0 0,29 -29,0 z M 609,348 l 29,0 0,29 -29,0 z M 667,348 l 29,0 0,29 -29,0 z M 696,348 l 29,0 0,29 -29,0 z M 812,348 l 29,0 0,29 -29,0 z M 841,348 l 29,0 0,29 -29,0 z M 899,348 l 29,0 0,29 -29,0 z M 957,348 l 29,0 0,29 -29,0 z M 1015,348 l 29,0 0,29 -29,0 z M 1073,348 l 29,0 0,29 -29,0 z M 1102,348 l 29,0 0,29 -29,0 z M 1160,348 l 29,0 0,29 -29,0 z M 29,377 l 29,0 0,29 -29,0 z M 87,377 l 29,0 0,29 -29,0 z M 116,377 l 29,0 0,29 -29,0 z M 145,377 l 29,0 0,29 -29,0 z M 290,377 l 29,0 0,29 -29,0 z M 348,377 l 29,0 0,29 -29,0 z M 435,377 l 29,0 0,29 -29,0 z M 464,377 l 29,0 0,29 -29,0 z M 522,377 l 29,0 0,29 -29,0 z M 580,377 l 29,0 0,29 -29,0 z M 609,377 l 29,0 0,29 -29,0 z M 696,377 l 29,0 0,29 -29,0 z M 783,377 l 29,0 0,29 -29,0 z M 870,377 l 29,0 0,29 -29,0 z M 928,377 l 29,0 0,29 -29,0 z M 1015,377 l 29,0 0,29 -29,0 z M 1044,377 l 29,0 0,29 -29,0 z M 1131,377 l 29,0 0,29 -29,0 z M 1160,377 l 29,0 0,29 -29,0 z M 0,406 l 29,0 0,29 -29,0 z M 116,406 l 29,0 0,29 -29,0 z M 174,406 l 29,0 0,29 -29,0 z M 261,406 l 29,0 0,29 -29,0 z M 319,406 l 29,0 0,29 -29,0 z M 406,406 l 29,0 0,29 -29,0 z M 435,406 l 29,0 0,29 -29,0 z M 464,406 l 29,0 0,29 -29,0 z M 493,406 l 29,0 0,29 -29,0 z M 522,406 l 29,0 0,29 -29,0 z M 580,406 l 29,0 0,29 -29,0 z M 667,406 l 29,0 0,29 -29,0 z M 696,406 l 29,0 0,29 -29,0 z M 725,406 l 29,0 0,29 -29,0 z M 783,406 l 29,0 0,29 -29,0 z M 812,406 l 29,0 0,29 -29,0 z M 841,406 l 29,0 0,29 -29,0 z M 899,406 l 29,0 0,29 -29,0 z M 957,406 l 29,0 0,29 -29,0 z M 1015,406 l 29,0 0,29 -29,0 z M 1044,406 l 29,0 0,29 -29,0 z M 1073,406 l 29,0 0,29 -29,0 z M 1102,406 l 29,0 0,29 -29,0 z M 0,435 l 29,0 0,29 -29,0 z M 87,435 l 29,0 0,29 -29,0 z M 116,435 l 29,0 0,29 -29,0 z M 203,435 l 29,0 0,29 -29,0 z M 232,435 l 29,0 0,29 -29,0 z M 261,435 l 29,0 0,29 -29,0 z M 348,435 l 29,0 0,29 -29,0 z M 377,435 l 29,0 0,29 -29,0 z M 464,435 l 29,0 0,29 -29,0 z M 580,435 l 29,0 0,29 -29,0 z M 638,435 l 29,0 0,29 -29,0 z M 667,435 l 29,0 0,29 -29,0 z M 725,435 l 29,0 0,29 -29,0 z M 783,435 l 29,0 0,29 -29,0 z M 899,435 l 29,0 0,29 -29,0 z M 928,435 l 29,0 0,29 -29,0 z M 986,435 l 29,0 0,29 -29,0 z M 1131,435 l 29,0 0,29 -29,0 z M 29,464 l 29,0 0,29 -29,0 z M 58,464 l 29,0 0,29 -29,0 z M 116,464 l 29,0 0,29 -29,0 z M 145,464 l 29,0 0,29 -29,0 z M 174,464 l 29,0 0,29 -29,0 z M 232,464 l 29,0 0,29 -29,0 z M 319,464 l 29,0 0,29 -29,0 z M 406,464 l 29,0 0,29 -29,0 z M 435,464 l 29,0 0,29 -29,0 z M 493,464 l 29,0 0,29 -29,0 z M 609,464 l 29,0 0,29 -29,0 z M 783,464 l 29,0 0,29 -29,0 z M 841,464 l 29,0 0,29 -29,0 z M 870,464 l 29,0 0,29 -29,0 z M 899,464 l 29,0 0,29 -29,0 z M 957,464 l 29,0 0,29 -29,0 z M 1015,464 l 29,0 0,29 -29,0 z M 1102,464 l 29,0 0,29 -29,0 z M 1160,464 l 29,0 0,29 -29,0 z M 87,493 l 29,0 0,29 -29,0 z M 203,493 l 29,0 0,29 -29,0 z M 232,493 l 29,0 0,29 -29,0 z M 261,493 l 29,0 0,29 -29,0 z M 319,493 l 29,0 0,29 -29,0 z M 406,493 l 29,0 0,29 -29,0 z M 464,493 l 29,0 0,29 -29,0 z M 522,493 l 29,0 0,29 -29,0 z M 580,493 l 29,0 0,29 -29,0 z M 609,493 l 29,0 0,29 -29,0 z M 638,493 l 29,0 0,29 -29,0 z M 667,493 l 29,0 0,29 -29,0 z M 696,493 l 29,0 0,29 -29,0 z M 725,493 l 29,0 0,29 -29,0 z M 812,493 l 29,0 0,29 -29,0 z M 841,493 l 29,0 0,29 -29,0 z M 870,493 l 29,0 0,29 -29,0 z M 899,493 l 29,0 0,29 -29,0 z M 928,493 l 29,0 0,29 -29,0 z M 986,493 l 29,0 0,29 -29,0 z M 1015,493 l 29,0 0,29 -29,0 z M 1044,493 l 29,0 0,29 -29,0 z M 1073,493 l 29,0 0,29 -29,0 z M 1102,493 l 29,0 0,29 -29,0 z M 1160,493 l 29,0 0,29 -29,0 z M 0,522 l 29,0 0,29 -29,0 z M 58,522 l 29,0 0,29 -29,0 z M 87,522 l 29,0 0,29 -29,0 z M 116,522 l 29,0 0,29 -29,0 z M 174,522 l 29,0 0,29 -29,0 z M 203,522 l 29,0 0,29 -29,0 z M 232,522 l 29,0 0,29 -29,0 z M 261,522 l 29,0 0,29 -29,0 z M 377,522 l 29,0 0,29 -29,0 z M 435,522 l 29,0 0,29 -29,0 z M 464,522 l 29,0 0,29 -29,0 z M 493,522 l 29,0 0,29 -29,0 z M 522,522 l 29,0 0,29 -29,0 z M 551,522 l 29,0 0,29 -29,0 z M 580,522 l 29,0 0,29 -29,0 z M 667,522 l 29,0 0,29 -29,0 z M 725,522 l 29,0 0,29 -29,0 z M 783,522 l 29,0 0,29 -29,0 z M 812,522 l 29,0 0,29 -29,0 z M 841,522 l 29,0 0,29 -29,0 z M 1044,522 l 29,0 0,29 -29,0 z M 1131,522 l 29,0 0,29 -29,0 z M 29,551 l 29,0 0,29 -29,0 z M 58,551 l 29,0 0,29 -29,0 z M 261,551 l 29,0 0,29 -29,0 z M 290,551 l 29,0 0,29 -29,0 z M 348,551 l 29,0 0,29 -29,0 z M 493,551 l 29,0 0,29 -29,0 z M 609,551 l 29,0 0,29 -29,0 z M 638,551 l 29,0 0,29 -29,0 z M 667,551 l 29,0 0,29 -29,0 z M 725,551 l 29,0 0,29 -29,0 z M 783,551 l 29,0 0,29 -29,0 z M 812,551 l 29,0 0,29 -29,0 z M 841,551 l 29,0 0,29 -29,0 z M 870,551 l 29,0 0,29 -29,0 z M 928,551 l 29,0 0,29 -29,0 z M 957,551 l 29,0 0,29 -29,0 z M 1044,551 l 29,0 0,29 -29,0 z M 29,580 l 29,0 0,29 -29,0 z M 58,580 l 29,0 0,29 -29,0 z M 145,580 l 29,0 0,29 -29,0 z M 174,580 l 29,0 0,29 -29,0 z M 203,580 l 29,0 0,29 -29,0 z M 261,580 l 29,0 0,29 -29,0 z M 290,580 l 29,0 0,29 -29,0 z M 319,580 l 29,0 0,29 -29,0 z M 464,580 l 29,0 0,29 -29,0 z M 551,580 l 29,0 0,29 -29,0 z M 580,580 l 29,0 0,29 -29,0 z M 609,580 l 29,0 0,29 -29,0 z M 638,580 l 29,0 0,29 -29,0 z M 667,580 l 29,0 0,29 -29,0 z M 696,580 l 29,0 0,29 -29,0 z M 783,580 l 29,0 0,29 -29,0 z M 1044,580 l 29,0 0,29 -29,0 z M 1102,580 l 29,0 0,29 -29,0 z M 1131,580 l 29,0 0,29 -29,0 z M 1160,580 l 29,0 0,29 -29,0 z M 0,609 l 29,0 0,29 -29,0 z M 29,609 l 29,0 0,29 -29,0 z M 58,609 l 29,0 0,29 -29,0 z M 116,609 l 29,0 0,29 -29,0 z M 290,609 l 29,0 0,29 -29,0 z M 377,609 l 29,0 0,29 -29,0 z M 435,609 l 29,0 0,29 -29,0 z M 522,609 l 29,0 0,29 -29,0 z M 638,609 l 29,0 0,29 -29,0 z M 696,609 l 29,0 0,29 -29,0 z M 783,609 l 29,0 0,29 -29,0 z M 812,609 l 29,0 0,29 -29,0 z M 841,609 l 29,0 0,29 -29,0 z M 870,609 l 29,0 0,29 -29,0 z M 899,609 l 29,0 0,29 -29,0 z M 928,609 l 29,0 0,29 -29,0 z M 957,609 l 29,0 0,29 -29,0 z M 986,609 l 29,0 0,29 -29,0 z M 1015,609 l 29,0 0,29 -29,0 z M 1073,609 l 29,0 0,29 -29,0 z M 1102,609 l 29,0 0,29 -29,0 z M 1131,609 l 29,0 0,29 -29,0 z M 1160,609 l 29,0 0,29 -29,0 z M 145,638 l 29,0 0,29 -29,0 z M 174,638 l 29,0 0,29 -29,0 z M 232,638 l 29,0 0,29 -29,0 z M 319,638 l 29,0 0,29 -29,0 z M 377,638 l 29,0 0,29 -29,0 z M 435,638 l 29,0 0,29 -29,0 z M 493,638 l 29,0 0,29 -29,0 z M 580,638 l 29,0 0,29 -29,0 z M 667,638 l 29,0 0,29 -29,0 z M 696,638 l 29,0 0,29 -29,0 z M 783,638 l 29,0 0,29 -29,0 z M 812,638 l 29,0 0,29 -29,0 z M 841,638 l 29,0 0,29 -29,0 z M 928,638 l 29,0 0,29 -29,0 z M 1102,638 l 29,0 0,29 -29,0 z M 0,667 l 29,0 0,29 -29,0 z M 29,667 l 29,0 0,29 -29,0 z M 145,667 l 29,0 0,29 -29,0 z M 319,667 l 29,0 0,29 -29,0 z M 406,667 l 29,0 0,29 -29,0 z M 667,667 l 29,0 0,29 -29,0 z M 812,667 l 29,0 0,29 -29,0 z M 928,667 l 29,0 0,29 -29,0 z M 957,667 l 29,0 0,29 -29,0 z M 1015,667 l 29,0 0,29 -29,0 z M 1073,667 l 29,0 0,29 -29,0 z M 1102,667 l 29,0 0,29 -29,0 z M 58,696 l 29,0 0,29 -29,0 z M 116,696 l 29,0 0,29 -29,0 z M 174,696 l 29,0 0,29 -29,0 z M 261,696 l 29,0 0,29 -29,0 z M 319,696 l 29,0 0,29 -29,0 z M 377,696 l 29,0 0,29 -29,0 z M 464,696 l 29,0 0,29 -29,0 z M 493,696 l 29,0 0,29 -29,0 z M 522,696 l 29,0 0,29 -29,0 z M 580,696 l 29,0 0,29 -29,0 z M 609,696 l 29,0 0,29 -29,0 z M 638,696 l 29,0 0,29 -29,0 z M 696,696 l 29,0 0,29 -29,0 z M 725,696 l 29,0 0,29 -29,0 z M 841,696 l 29,0 0,29 -29,0 z M 957,696 l 29,0 0,29 -29,0 z M 1160,696 l 29,0 0,29 -29,0 z M 29,725 l 29,0 0,29 -29,0 z M 58,725 l 29,0 0,29 -29,0 z M 87,725 l 29,0 0,29 -29,0 z M 145,725 l 29,0 0,29 -29,0 z M 203,725 l 29,0 0,29 -29,0 z M 232,725 l 29,0 0,29 -29,0 z M 319,725 l 29,0 0,29 -29,0 z M 377,725 l 29,0 0,29 -29,0 z M 406,725 l 29,0 0,29 -29,0 z M 464,725 l 29,0 0,29 -29,0 z M 551,725 l 29,0 0,29 -29,0 z M 638,725 l 29,0 0,29 -29,0 z M 696,725 l 29,0 0,29 -29,0 z M 812,725 l 29,0 0,29 -29,0 z M 841,725 l 29,0 0,29 -29,0 z M 899,725 l 29,0 0,29 -29,0 z M 957,725 l 29,0 0,29 -29,0 z M 986,725 l 29,0 0,29 -29,0 z M 1015,725 l 29,0 0,29 -29,0 z M 1044,725 l 29,0 0,29 -29,0 z M 1073,725 l 29,0 0,29 -29,0 z M 1131,725 l 29,0 0,29 -29,0 z M 1160,725 l 29,0 0,29 -29,0 z M 0,754 l 29,0 0,29 -29,0 z M 58,754 l 29,0 0,29 -29,0 z M 87,754 l 29,0 0,29 -29,0 z M 116,754 l 29,0 0,29 -29,0 z M 174,754 l 29,0 0,29 -29,0 z M 261,754 l 29,0 0,29 -29,0 z M 290,754 l 29,0 0,29 -29,0 z M 319,754 l 29,0 0,29 -29,0 z M 348,754 l 29,0 0,29 -29,0 z M 377,754 l 29,0 0,29 -29,0 z M 580,754 l 29,0 0,29 -29,0 z M 638,754 l 29,0 0,29 -29,0 z M 667,754 l 29,0 0,29 -29,0 z M 725,754 l 29,0 0,29 -29,0 z M 754,754 l 29,0 0,29 -29,0 z M 783,754 l 29,0 0,29 -29,0 z M 812,754 l 29,0 0,29 -29,0 z M 870,754 l 29,0 0,29 -29,0 z M 928,754 l 29,0 0,29 -29,0 z M 986,754 l 29,0 0,29 -29,0 z M 1044,754 l 29,0 0,29 -29,0 z M 1131,754 l 29,0 0,29 -29,0 z M 0,783 l 29,0 0,29 -29,0 z M 58,783 l 29,0 0,29 -29,0 z M 87,783 l 29,0 0,29 -29,0 z M 145,783 l 29,0 0,29 -29,0 z M 203,783 l 29,0 0,29 -29,0 z M 261,783 l 29,0 0,29 -29,0 z M 319,783 l 29,0 0,29 -29,0 z M 348,783 l 29,0 0,29 -29,0 z M 377,783 l 29,0 0,29 -29,0 z M 464,783 l 29,0 0,29 -29,0 z M 493,783 l 29,0 0,29 -29,0 z M 551,783 l 29,0 0,29 -29,0 z M 580,783 l 29,0 0,29 -29,0 z M 609,783 l 29,0 0,29 -29,0 z M 696,783 l 29,0 0,29 -29,0 z M 754,783 l 29,0 0,29 -29,0 z M 899,783 l 29,0 0,29 -29,0 z M 928,783 l 29,0 0,29 -29,0 z M 957,783 l 29,0 0,29 -29,0 z M 986,783 l 29,0 0,29 -29,0 z M 1073,783 l 29,0 0,29 -29,0 z M 1160,783 l 29,0 0,29 -29,0 z M 29,812 l 29,0 0,29 -29,0 z M 145,812 l 29,0 0,29 -29,0 z M 174,812 l 29,0 0,29 -29,0 z M 203,812 l 29,0 0,29 -29,0 z M 232,812 l 29,0 0,29 -29,0 z M 261,812 l 29,0 0,29 -29,0 z M 290,812 l 29,0 0,29 -29,0 z M 348,812 l 29,0 0,29 -29,0 z M 493,812 l 29,0 0,29 -29,0 z M 551,812 l 29,0 0,29 -29,0 z M 580,812 l 29,0 0,29 -29,0 z M 638,812 l 29,0 0,29 -29,0 z M 667,812 l 29,0 0,29 -29,0 z M 841,812 l 29,0 0,29 -29,0 z M 899,812 l 29,0 0,29 -29,0 z M 928,812 l 29,0 0,29 -29,0 z M 986,812 l 29,0 0,29 -29,0 z M 1073,812 l 29,0 0,29 -29,0 z M 1102,812 l 29,0 0,29 -29,0 z M 1160,812 l 29,0 0,29 -29,0 z M 0,841 l 29,0 0,29 -29,0 z M 58,841 l 29,0 0,29 -29,0 z M 203,841 l 29,0 0,29 -29,0 z M 261,841 l 29,0 0,29 -29,0 z M 290,841 l 29,0 0,29 -29,0 z M 319,841 l 29,0 0,29 -29,0 z M 522,841 l 29,0 0,29 -29,0 z M 638,841 l 29,0 0,29 -29,0 z M 725,841 l 29,0 0,29 -29,0 z M 754,841 l 29,0 0,29 -29,0 z M 783,841 l 29,0 0,29 -29,0 z M 812,841 l 29,0 0,29 -29,0 z M 841,841 l 29,0 0,29 -29,0 z M 870,841 l 29,0 0,29 -29,0 z M 957,841 l 29,0 0,29 -29,0 z M 1015,841 l 29,0 0,29 -29,0 z M 1044,841 l 29,0 0,29 -29,0 z M 1073,841 l 29,0 0,29 -29,0 z M 1102,841 l 29,0 0,29 -29,0 z M 1131,841 l 29,0 0,29 -29,0 z M 1160,841 l 29,0 0,29 -29,0 z M 0,870 l 29,0 0,29 -29,0 z M 174,870 l 29,0 0,29 -29,0 z M 232,870 l 29,0 0,29 -29,0 z M 290,870 l 29,0 0,29 -29,0 z M 348,870 l 29,0 0,29 -29,0 z M 406,870 l 29,0 0,29 -29,0 z M 435,870 l 29,0 0,29 -29,0 z M 696,870 l 29,0 0,29 -29,0 z M 754,870 l 29,0 0,29 -29,0 z M 928,870 l 29,0 0,29 -29,0 z M 957,870 l 29,0 0,29 -29,0 z M 986,870 l 29,0 0,29 -29,0 z M 1015,870 l 29,0 0,29 -29,0 z M 1102,870 l 29,0 0,29 -29,0 z M 0,899 l 29,0 0,29 -29,0 z M 58,899 l 29,0 0,29 -29,0 z M 87,899 l 29,0 0,29 -29,0 z M 145,899 l 29,0 0,29 -29,0 z M 203,899 l 29,0 0,29 -29,0 z M 290,899 l 29,0 0,29 -29,0 z M 319,899 l 29,0 0,29 -29,0 z M 348,899 l 29,0 0,29 -29,0 z M 406,899 l 29,0 0,29 -29,0 z M 435,899 l 29,0 0,29 -29,0 z M 522,899 l 29,0 0,29 -29,0 z M 638,899 l 29,0 0,29 -29,0 z M 667,899 l 29,0 0,29 -29,0 z M 696,899 l 29,0 0,29 -29,0 z M 812,899 l 29,0 0,29 -29,0 z M 957,899 l 29,0 0,29 -29,0 z M 986,899 l 29,0 0,29 -29,0 z M 1015,899 l 29,0 0,29 -29,0 z M 1044,899 l 29,0 0,29 -29,0 z M 1073,899 l 29,0 0,29 -29,0 z M 0,928 l 29,0 0,29 -29,0 z M 116,928 l 29,0 0,29 -29,0 z M 174,928 l 29,0 0,29 -29,0 z M 261,928 l 29,0 0,29 -29,0 z M 348,928 l 29,0 0,29 -29,0 z M 435,928 l 29,0 0,29 -29,0 z M 464,928 l 29,0 0,29 -29,0 z M 493,928 l 29,0 0,29 -29,0 z M 522,928 l 29,0 0,29 -29,0 z M 580,928 l 29,0 0,29 -29,0 z M 638,928 l 29,0 0,29 -29,0 z M 667,928 l 29,0 0,29 -29,0 z M 754,928 l 29,0 0,29 -29,0 z M 841,928 l 29,0 0,29 -29,0 z M 928,928 l 29,0 0,29 -29,0 z M 957,928 l 29,0 0,29 -29,0 z M 986,928 l 29,0 0,29 -29,0 z M 1015,928 l 29,0 0,29 -29,0 z M 1044,928 l 29,0 0,29 -29,0 z M 1102,928 l 29,0 0,29 -29,0 z M 1131,928 l 29,0 0,29 -29,0 z M 1160,928 l 29,0 0,29 -29,0 z M 232,957 l 29,0 0,29 -29,0 z M 319,957 l 29,0 0,29 -29,0 z M 377,957 l 29,0 0,29 -29,0 z M 406,957 l 29,0 0,29 -29,0 z M 464,957 l 29,0 0,29 -29,0 z M 522,957 l 29,0 0,29 -29,0 z M 551,957 l 29,0 0,29 -29,0 z M 580,957 l 29,0 0,29 -29,0 z M 609,957 l 29,0 0,29 -29,0 z M 638,957 l 29,0 0,29 -29,0 z M 725,957 l 29,0 0,29 -29,0 z M 754,957 l 29,0 0,29 -29,0 z M 812,957 l 29,0 0,29 -29,0 z M 870,957 l 29,0 0,29 -29,0 z M 928,957 l 29,0 0,29 -29,0 z M 1044,957 l 29,0 0,29 -29,0 z M 1073,957 l 29,0 0,29 -29,0 z M 1102,957 l 29,0 0,29 -29,0 z M 1131,957 l 29,0 0,29 -29,0 z M 1160,957 l 29,0 0,29 -29,0 z M 0,986 l 29,0 0,29 -29,0 z M 29,986 l 29,0 0,29 -29,0 z M 58,986 l 29,0 0,29 -29,0 z M 87,986 l 29,0 0,29 -29,0 z M 116,986 l 29,0 0,29 -29,0 z M 145,986 l 29,0 0,29 -29,0 z M 174,986 l 29,0 0,29 -29,0 z M 261,986 l 29,0 0,29 -29,0 z M 319,986 l 29,0 0,29 -29,0 z M 348,986 l 29,0 0,29 -29,0 z M 406,986 l 29,0 0,29 -29,0 z M 464,986 l 29,0 0,29 -29,0 z M 493,986 l 29,0 0,29 -29,0 z M 522,986 l 29,0 0,29 -29,0 z M 580,986 l 29,0 0,29 -29,0 z M 638,986 l 29,0 0,29 -29,0 z M 667,986 l 29,0 0,29 -29,0 z M 725,986 l 29,0 0,29 -29,0 z M 754,986 l 29,0 0,29 -29,0 z M 783,986 l 29,0 0,29 -29,0 z M 870,986 l 29,0 0,29 -29,0 z M 899,986 l 29,0 0,29 -29,0 z M 928,986 l 29,0 0,29 -29,0 z M 986,986 l 29,0 0,29 -29,0 z M 1044,986 l 29,0 0,29 -29,0 z M 1073,986 l 29,0 0,29 -29,0 z M 0,1015 l 29,0 0,29 -29,0 z M 174,1015 l 29,0 0,29 -29,0 z M 261,1015 l 29,0 0,29 -29,0 z M 290,1015 l 29,0 0,29 -29,0 z M 319,1015 l 29,0 0,29 -29,0 z M 406,1015 l 29,0 0,29 -29,0 z M 435,1015 l 29,0 0,29 -29,0 z M 522,1015 l 29,0 0,29 -29,0 z M 638,1015 l 29,0 0,29 -29,0 z M 696,1015 l 29,0 0,29 -29,0 z M 725,1015 l 29,0 0,29 -29,0 z M 754,1015 l 29,0 0,29 -29,0 z M 783,1015 l 29,0 0,29 -29,0 z M 812,1015 l 29,0 0,29 -29,0 z M 899,1015 l 29,0 0,29 -29,0 z M 928,1015 l 29,0 0,29 -29,0 z M 1044,1015 l 29,0 0,29 -29,0 z M 1073,1015 l 29,0 0,29 -29,0 z M 1131,1015 l 29,0 0,29 -29,0 z M 1160,1015 l 29,0 0,29 -29,0 z M 0,1044 l 29,0 0,29 -29,0 z M 58,1044 l 29,0 0,29 -29,0 z M 87,1044 l 29,0 0,29 -29,0 z M 116,1044 l 29,0 0,29 -29,0 z M 174,1044 l 29,0 0,29 -29,0 z M 232,1044 l 29,0 0,29 -29,0 z M 261,1044 l 29,0 0,29 -29,0 z M 290,1044 l 29,0 0,29 -29,0 z M 348,1044 l 29,0 0,29 -29,0 z M 464,1044 l 29,0 0,29 -29,0 z M 493,1044 l 29,0 0,29 -29,0 z M 551,1044 l 29,0 0,29 -29,0 z M 609,1044 l 29,0 0,29 -29,0 z M 638,1044 l 29,0 0,29 -29,0 z M 667,1044 l 29,0 0,29 -29,0 z M 754,1044 l 29,0 0,29 -29,0 z M 783,1044 l 29,0 0,29 -29,0 z M 870,1044 l 29,0 0,29 -29,0 z M 928,1044 l 29,0 0,29 -29,0 z M 957,1044 l 29,0 0,29 -29,0 z M 986,1044 l 29,0 0,29 -29,0 z M 1015,1044 l 29,0 0,29 -29,0 z M 1044,1044 l 29,0 0,29 -29,0 z M 1102,1044 l 29,0 0,29 -29,0 z M 1131,1044 l 29,0 0,29 -29,0 z M 0,1073 l 29,0 0,29 -29,0 z M 58,1073 l 29,0 0,29 -29,0 z M 87,1073 l 29,0 0,29 -29,0 z M 116,1073 l 29,0 0,29 -29,0 z M 174,1073 l 29,0 0,29 -29,0 z M 232,1073 l 29,0 0,29 -29,0 z M 348,1073 l 29,0 0,29 -29,0 z M 377,1073 l 29,0 0,29 -29,0 z M 464,1073 l 29,0 0,29 -29,0 z M 551,1073 l 29,0 0,29 -29,0 z M 638,1073 l 29,0 0,29 -29,0 z M 667,1073 l 29,0 0,29 -29,0 z M 725,1073 l 29,0 0,29 -29,0 z M 754,1073 l 29,0 0,29 -29,0 z M 899,1073 l 29,0 0,29 -29,0 z M 957,1073 l 29,0 0,29 -29,0 z M 1015,1073 l 29,0 0,29 -29,0 z M 1131,1073 l 29,0 0,29 -29,0 z M 1160,1073 l 29,0 0,29 -29,0 z M 0,1102 l 29,0 0,29 -29,0 z M 58,1102 l 29,0 0,29 -29,0 z M 87,1102 l 29,0 0,29 -29,0 z M 116,1102 l 29,0 0,29 -29,0 z M 174,1102 l 29,0 0,29 -29,0 z M 232,1102 l 29,0 0,29 -29,0 z M 261,1102 l 29,0 0,29 -29,0 z M 348,1102 l 29,0 0,29 -29,0 z M 377,1102 l 29,0 0,29 -29,0 z M 435,1102 l 29,0 0,29 -29,0 z M 493,1102 l 29,0 0,29 -29,0 z M 522,1102 l 29,0 0,29 -29,0 z M 725,1102 l 29,0 0,29 -29,0 z M 754,1102 l 29,0 0,29 -29,0 z M 783,1102 l 29,0 0,29 -29,0 z M 812,1102 l 29,0 0,29 -29,0 z M 899,1102 l 29,0 0,29 -29,0 z M 928,1102 l 29,0 0,29 -29,0 z M 957,1102 l 29,0 0,29 -29,0 z M 986,1102 l 29,0 0,29 -29,0 z M 1015,1102 l 29,0 0,29 -29,0 z M 1044,1102 l 29,0 0,29 -29,0 z M 1073,1102 l 29,0 0,29 -29,0 z M 1131,1102 l 29,0 0,29 -29,0 z M 0,1131 l 29,0 0,29 -29,0 z M 174,1131 l 29,0 0,29 -29,0 z M 261,1131 l 29,0 0,29 -29,0 z M 290,1131 l 29,0 0,29 -29,0 z M 319,1131 l 29,0 0,29 -29,0 z M 348,1131 l 29,0 0,29 -29,0 z M 377,1131 l 29,0 0,29 -29,0 z M 435,1131 l 29,0 0,29 -29,0 z M 493,1131 l 29,0 0,29 -29,0 z M 522,1131 l 29,0 0,29 -29,0 z M 551,1131 l 29,0 0,29 -29,0 z M 609,1131 l 29,0 0,29 -29,0 z M 638,1131 l 29,0 0,29 -29,0 z M 696,1131 l 29,0 0,29 -29,0 z M 754,1131 l 29,0 0,29 -29,0 z M 812,1131 l 29,0 0,29 -29,0 z M 870,1131 l 29,0 0,29 -29,0 z M 899,1131 l 29,0 0,29 -29,0 z M 928,1131 l 29,0 0,29 -29,0 z M 957,1131 l 29,0 0,29 -29,0 z M 986,1131 l 29,0 0,29 -29,0 z M 1044,1131 l 29,0 0,29 -29,0 z M 1131,1131 l 29,0 0,29 -29,0 z M 0,1160 l 29,0 0,29 -29,0 z M 29,1160 l 29,0 0,29 -29,0 z M 58,1160 l 29,0 0,29 -29,0 z M 87,1160 l 29,0 0,29 -29,0 z M 116,1160 l 29,0 0,29 -29,0 z M 145,1160 l 29,0 0,29 -29,0 z M 174,1160 l 29,0 0,29 -29,0 z M 348,1160 l 29,0 0,29 -29,0 z M 377,1160 l 29,0 0,29 -29,0 z M 435,1160 l 29,0 0,29 -29,0 z M 493,1160 l 29,0 0,29 -29,0 z M 638,1160 l 29,0 0,29 -29,0 z M 667,1160 l 29,0 0,29 -29,0 z M 696,1160 l 29,0 0,29 -29,0 z M 754,1160 l 29,0 0,29 -29,0 z M 841,1160 l 29,0 0,29 -29,0 z M 899,1160 l 29,0 0,29 -29,0 z M 957,1160 l 29,0 0,29 -29,0 z M 1015,1160 l 29,0 0,29 -29,0 z M 1044,1160 l 29,0 0,29 -29,0 z M 1073,1160 l 29,0 0,29 -29,0 z " />
	</g>
</svg>
