<?xml version="1.0" standalone="no"?>
<svg xmlns="http://www.w3.org/2000/svg" version="1.1" width="1184" height="1184">
	<!-- Created with https://api.qrserver.com (QR Code API, see goQR.me/api for information) -->
	<title>QR Code</title>
	<desc>https://notkobi3.github.io/demo-restaurant/</desc>
	<rect style="fill:rgb(255, 255, 255);fill-opacity:1" x="0" y="0" width="1184" height="1184" />
	<g id="elements">
		<path style="fill:rgb(0, 0, 0)" d="M 0,0 l 32,0 0,32 -32,0 z M 32,0 l 32,0 0,32 -32,0 z M 64,0 l 32,0 0,32 -32,0 z M 96,0 l 32,0 0,32 -32,0 z M 128,0 l 32,0 0,32 -32,0 z M 160,0 l 32,0 0,32 -32,0 z M 192,0 l 32,0 0,32 -32,0 z M 256,0 l 32,0 0,32 -32,0 z M 320,0 l 32,0 0,32 -32,0 z M 384,0 l 32,0 0,32 -32,0 z M 416,0 l 32,0 0,32 -32,0 z M 480,0 l 32,0 0,32 -32,0 z M 512,0 l 32,0 0,32 -32,0 z M 544,0 l 32,0 0,32 -32,0 z M 576,0 l 32,0 0,32 -32,0 z M 640,0 l 32,0 0,32 -32,0 z M 672,0 l 32,0 0,32 -32,0 z M 896,0 l 32,0 0,32 -32,0 z M 960,0 l 32,0 0,32 -32,0 z M 992,0 l 32,0 0,32 -32,0 z M 1024,0 l 32,0 0,32 -32,0 z M 1056,0 l 32,0 0,32 -32,0 z M 1088,0 l 32,0 0,32 -32,0 z M 1120,0 l 32,0 0,32 -32,0 z M 1152,0 l 32,0 0,32 -32,0 z M 0,32 l 32,0 0,32 -32,0 z M 192,32 l 32,0 0,32 -32,0 z M 256,32 l 32,0 0,32 -32,0 z M 320,32 l 32,0 0,32 -32,0 z M 384,32 l 32,0 0,32 -32,0 z M 512,32 l 32,0 0,32 -32,0 z M 608,32 l 32,0 0,32 -32,0 z M 704,32 l 32,0 0,32 -32,0 z M 768,32 l 32,0 0,32 -32,0 z M 832,32 l 32,0 0,32 -32,0 z M 864,32 l 32,0 0,32 -32,0 z M 896,32 l 32,0 0,32 -32,0 z M 960,32 l 32,0 0,32 -32,0 z M 1152,32 l 32,0 0,32 -32,0 z M 0,64 l 32,0 0,32 -32,0 z M 64,64 l 32,0 0,32 -32,0 z M 96,64 l 32,0 0,32 -32,0 z M 128,64 l 32,0 0,32 -32,0 z M 192,64 l 32,0 0,32 -32,0 z M 256,64 l 32,0 0,32 -32,0 z M 288,64 l 32,0 0,32 -32,0 z M 352,64 l 32,0 0,32 -32,0 z M 384,64 l 32,0 0,32 -32,0 z M 448,64 l 32,0 0,32 -32,0 z M 480,64 l 32,0 0,32 -32,0 z M 512,64 l 32,0 0,32 -32,0 z M 576,64 l 32,0 0,32 -32,0 z M 608,64 l 32,0 0,32 -32,0 z M 640,64 l 32,0 0,32 -32,0 z M 672,64 l 32,0 0,32 -32,0 z M 736,64 l 32,0 0,32 -32,0 z M 832,64 l 32,0 0,32 -32,0 z M 896,64 l 32,0 0,32 -32,0 z M 960,64 l 32,0 0,32 -32,0 z M 1024,64 l 32,0 0,32 -32,0 z M 1056,64 l 32,0 0,32 -32,0 z M 1088,64 l 32,0 0,32 -32,0 z M 1152,64 l 32,0 0,32 -32,0 z M 0,96 l 32,0 0,32 -32,0 z M 64,96 l 32,0 0,32 -32,0 z M 96,96 l 32,0 0,32 -32,0 z M 128,96 l 32,0 0,32 -32,0 z M 192,96 l 32,0 0,32 -32,0 z M 352,96 l 32,0 0,32 -32,0 z M 416,96 l 32,0 0,32 -32,0 z M 448,96 l 32,0 0,32 -32,0 z M 512,96 l 32,0 0,32 -32,0 z M 544,96 l 32,0 0,32 -32,0 z M 576,96 l 32,0 0,32 -32,0 z M 768,96 l 32,0 0,32 -32,0 z M 800,96 l 32,0 0,32 -32,0 z M 832,96 l 32,0 0,32 -32,0 z M 864,96 l 32,0 0,32 -32,0 z M 960,96 l 32,0 0,32 -32,0 z M 1024,96 l 32,0 0,32 -32,0 z M 1056,96 l 32,0 0,32 -32,0 z M 1088,96 l 32,0 0,32 -32,0 z M 1152,96 l 32,0 0,32 -32,0 z M 0,128 l 32,0 0,32 -32,0 z M 64,128 l 32,0 0,32 -32,0 z M 96,128 l 32,0 0,32 -32,0 z M 128,128 l 32,0 0,32 -32,0 z M 192,128 l 32,0 0,32 -32,0 z M 448,128 l 32,0 0,32 -32,0 z M 480,128 l 32,0 0,32 -32,0 z M 512,128 l 32,0 0,32 -32,0 z M 608,128 l 32,0 0,32 -32,0 z M 672,128 l 32,0 0,32 -32,0 z M 800,128 l 32,0 0,32 -32,0 z M 960,128 l 32,0 0,32 -32,0 z M 1024,128 l 32,0 0,32 -32,0 z M 1056,128 l 32,0 0,32 -32,0 z M 1088,128 l 32,0 0,32 -32,0 z M 1152,128 l 32,0 0,32 -32,0 z M 0,160 l 32,0 0,32 -32,0 z M 192,160 l 32,0 0,32 -32,0 z M 256,160 l 32,0 0,32 -32,0 z M 352,160 l 32,0 0,32 -32,0 z M 384,160 l 32,0 0,32 -32,0 z M 448,160 l 32,0 0,32 -32,0 z M 544,160 l 32,0 0,32 -32,0 z M 576,160 l 32,0 0,32 -32,0 z M 608,160 l 32,0 0,32 -32,0 z M 640,160 l 32,0 0,32 -32,0 z M 768,160 l 32,0 0,32 -32,0 z M 800,160 l 32,0 0,32 -32,0 z M 832,160 l 32,0 0,32 -32,0 z M 864,160 l 32,0 0,32 -32,0 z M 896,160 l 32,0 0,32 -32,0 z M 960,160 l 32,0 0,32 -32,0 z M 1152,160 l 32,0 0,32 -32,0 z M 0,192 l 32,0 0,32 -32,0 z M 32,192 l 32,0 0,32 -32,0 z M 64,192 l 32,0 0,32 -32,0 z M 96,192 l 32,0 0,32 -32,0 z M 128,192 l 32,0 0,32 -32,0 z M 160,192 l 32,0 0,32 -32,0 z M 192,192 l 32,0 0,32 -32,0 z M 256,192 l 32,0 0,32 -32,0 z M 320,192 l 32,0 0,32 -32,0 z M 384,192 l 32,0 0,32 -32,0 z M 448,192 l 32,0 0,32 -32,0 z M 512,192 l 32,0 0,32 -32,0 z M 576,192 l 32,0 0,32 -32,0 z M 640,192 l 32,0 0,32 -32,0 z M 704,192 l 32,0 0,32 -32,0 z M 768,192 l 32,0 0,32 -32,0 z M 832,192 l 32,0 0,32 -32,0 z M 896,192 l 32,0 0,32 -32,0 z M 960,192 l 32,0 0,32 -32,0 z M 992,192 l 32,0 0,32 -32,0 z M 1024,192 l 32,0 0,32 -32,0 z M 1056,192 l 32,0 0,32 -32,0 z M 1088,192 l 32,0 0,32 -32,0 z M 1120,192 l 32,0 0,32 -32,0 z M 1152,192 l 32,0 0,32 -32,0 z M 256,224 l 32,0 0,32 -32,0 z M 288,224 l 32,0 0,32 -32,0 z M 320,224 l 32,0 0,32 -32,0 z M 384,224 l 32,0 0,32 -32,0 z M 416,224 l 32,0 0,32 -32,0 z M 448,224 l 32,0 0,32 -32,0 z M 544,224 l 32,0 0,32 -32,0 z M 576,224 l 32,0 0,32 -32,0 z M 608,224 l 32,0 0,32 -32,0 z M 640,224 l 32,0 0,32 -32,0 z M 704,224 l 32,0 0,32 -32,0 z M 736,224 l 32,0 0,32 -32,0 z M 768,224 l 32,0 0,32 -32,0 z M 896,224 l 32,0 0,32 -32,0 z M 64,256 l 32,0 0,32 -32,0 z M 96,256 l 32,0 0,32 -32,0 z M 128,256 l 32,0 0,32 -32,0 z M 192,256 l 32,0 0,32 -32,0 z M 256,256 l 32,0 0,32 -32,0 z M 320,256 l 32,0 0,32 -32,0 z M 512,256 l 32,0 0,32 -32,0 z M 576,256 l 32,0 0,32 -32,0 z M 608,256 l 32,0 0,32 -32,0 z M 672,256 l 32,0 0,32 -32,0 z M 736,256 l 32,0 0,32 -32,0 z M 768,256 l 32,0 0,32 -32,0 z M 800,256 l 32,0 0,32 -32,0 z M 832,256 l 32,0 0,32 -32,0 z M 928,256 l 32,0 0,32 -32,0 z M 960,256 l 32,0 0,32 -32,0 z M 992,256 l 32,0 0,32 -32,0 z M 1088,256 l 32,0 0,32 -32,0 z M 1120,256 l 32,0 0,32 -32,0 z M 1152,256 l 32,0 0,32 -32,0 z M 0,288 l 32,0 0,32 -32,0 z M 128,288 l 32,0 0,32 -32,0 z M 160,288 l 32,0 0,32 -32,0 z M 224,288 l 32,0 0,32 -32,0 z M 352,288 l 32,0 0,32 -32,0 z M 384,288 l 32,0 0,32 -32,0 z M 416,288 l 32,0 0,32 -32,0 z M 512,288 l 32,0 0,32 -32,0 z M 544,288 l 32,0 0,32 -32,0 z M 608,288 l 32,0 0,32 -32,0 z M 640,288 l 32,0 0,32 -32,0 z M 704,288 l 32,0 0,32 -32,0 z M 736,288 l 32,0 0,32 -32,0 z M 800,288 l 32,0 0,32 -32,0 z M 832,288 l 32,0 0,32 -32,0 z M 896,288 l 32,0 0,32 -32,0 z M 928,288 l 32,0 0,32 -32,0 z M 992,288 l 32,0 0,32 -32,0 z M 0,320 l 32,0 0,32 -32,0 z M 64,320 l 32,0 0,32 -32,0 z M 192,320 l 32,0 0,32 -32,0 z M 224,320 l 32,0 0,32 -32,0 z M 256,320 l 32,0 0,32 -32,0 z M 288,320 l 32,0 0,32 -32,0 z M 320,320 l 32,0 0,32 -32,0 z M 352,320 l 32,0 0,32 -32,0 z M 416,320 l 32,0 0,32 -32,0 z M 512,320 l 32,0 0,32 -32,0 z M 576,320 l 32,0 0,32 -32,0 z M 608,320 l 32,0 0,32 -32,0 z M 640,320 l 32,0 0,32 -32,0 z M 672,320 l 32,0 0,32 -32,0 z M 704,320 l 32,0 0,32 -32,0 z M 736,320 l 32,0 0,32 -32,0 z M 800,320 l 32,0 0,32 -32,0 z M 832,320 l 32,0 0,32 -32,0 z M 864,320 l 32,0 0,32 -32,0 z M 896,320 l 32,0 0,32 -32,0 z M 960,320 l 32,0 0,32 -32,0 z M 992,320 l 32,0 0,32 -32,0 z M 1120,320 l 32,0 0,32 -32,0 z M 1152,320 l 32,0 0,32 -32,0 z M 0,352 l 32,0 0,32 -32,0 z M 96,352 l 32,0 0,32 -32,0 z M 160,352 l 32,0 0,32 -32,0 z M 288,352 l 32,0 0,32 -32,0 z M 320,352 l 32,0 0,32 -32,0 z M 480,352 l 32,0 0,32 -32,0 z M 544,352 l 32,0 0,32 -32,0 z M 608,352 l 32,0 0,32 -32,0 z M 672,352 l 32,0 0,32 -32,0 z M 736,352 l 32,0 0,32 -32,0 z M 832,352 l 32,0 0,32 -32,0 z M 864,352 l 32,0 0,32 -32,0 z M 960,352 l 32,0 0,32 -32,0 z M 1120,352 l 32,0 0,32 -32,0 z M 1152,352 l 32,0 0,32 -32,0 z M 0,384 l 32,0 0,32 -32,0 z M 64,384 l 32,0 0,32 -32,0 z M 96,384 l 32,0 0,32 -32,0 z M 192,384 l 32,0 0,32 -32,0 z M 256,384 l 32,0 0,32 -32,0 z M 288,384 l 32,0 0,32 -32,0 z M 384,384 l 32,0 0,32 -32,0 z M 448,384 l 32,0 0,32 -32,0 z M 672,384 l 32,0 0,32 -32,0 z M 800,384 l 32,0 0,32 -32,0 z M 832,384 l 32,0 0,32 -32,0 z M 864,384 l 32,0 0,32 -32,0 z M 928,384 l 32,0 0,32 -32,0 z M 960,384 l 32,0 0,32 -32,0 z M 1024,384 l 32,0 0,32 -32,0 z M 1088,384 l 32,0 0,32 -32,0 z M 1120,384 l 32,0 0,32 -32,0 z M 1152,384 l 32,0 0,32 -32,0 z M 0,416 l 32,0 0,32 -32,0 z M 96,416 l 32,0 0,32 -32,0 z M 224,416 l 32,0 0,32 -32,0 z M 288,416 l 32,0 0,32 -32,0 z M 448,416 l 32,0 0,32 -32,0 z M 480,416 l 32,0 0,32 -32,0 z M 512,416 l 32,0 0,32 -32,0 z M 576,416 l 32,0 0,32 -32,0 z M 704,416 l 32,0 0,32 -32,0 z M 800,416 l 32,0 0,32 -32,0 z M 896,416 l 32,0 0,32 -32,0 z M 928,416 l 32,0 0,32 -32,0 z M 992,416 l 32,0 0,32 -32,0 z M 1056,416 l 32,0 0,32 -32,0 z M 1088,416 l 32,0 0,32 -32,0 z M 0,448 l 32,0 0,32 -32,0 z M 32,448 l 32,0 0,32 -32,0 z M 128,448 l 32,0 0,32 -32,0 z M 160,448 l 32,0 0,32 -32,0 z M 192,448 l 32,0 0,32 -32,0 z M 224,448 l 32,0 0,32 -32,0 z M 256,448 l 32,0 0,32 -32,0 z M 320,448 l 32,0 0,32 -32,0 z M 352,448 l 32,0 0,32 -32,0 z M 416,448 l 32,0 0,32 -32,0 z M 448,448 l 32,0 0,32 -32,0 z M 480,448 l 32,0 0,32 -32,0 z M 544,448 l 32,0 0,32 -32,0 z M 640,448 l 32,0 0,32 -32,0 z M 704,448 l 32,0 0,32 -32,0 z M 864,448 l 32,0 0,32 -32,0 z M 992,448 l 32,0 0,32 -32,0 z M 1056,448 l 32,0 0,32 -32,0 z M 1120,448 l 32,0 0,32 -32,0 z M 1152,448 l 32,0 0,32 -32,0 z M 64,480 l 32,0 0,32 -32,0 z M 128,480 l 32,0 0,32 -32,0 z M 224,480 l 32,0 0,32 -32,0 z M 352,480 l 32,0 0,32 -32,0 z M 544,480 l 32,0 0,32 -32,0 z M 608,480 l 32,0 0,32 -32,0 z M 704,480 l 32,0 0,32 -32,0 z M 832,480 l 32,0 0,32 -32,0 z M 864,480 l 32,0 0,32 -32,0 z M 896,480 l 32,0 0,32 -32,0 z M 928,480 l 32,0 0,32 -32,0 z M 960,480 l 32,0 0,32 -32,0 z M 1024,480 l 32,0 0,32 -32,0 z M 1152,480 l 32,0 0,32 -32,0 z M 0,512 l 32,0 0,32 -32,0 z M 64,512 l 32,0 0,32 -32,0 z M 160,512 l 32,0 0,32 -32,0 z M 192,512 l 32,0 0,32 -32,0 z M 256,512 l 32,0 0,32 -32,0 z M 288,512 l 32,0 0,32 -32,0 z M 320,512 l 32,0 0,32 -32,0 z M 352,512 l 32,0 0,32 -32,0 z M 384,512 l 32,0 0,32 -32,0 z M 512,512 l 32,0 0,32 -32,0 z M 576,512 l 32,0 0,32 -32,0 z M 640,512 l 32,0 0,32 -32,0 z M 672,512 l 32,0 0,32 -32,0 z M 736,512 l 32,0 0,32 -32,0 z M 768,512 l 32,0 0,32 -32,0 z M 800,512 l 32,0 0,32 -32,0 z M 832,512 l 32,0 0,32 -32,0 z M 864,512 l 32,0 0,32 -32,0 z M 960,512 l 32,0 0,32 -32,0 z M 1024,512 l 32,0 0,32 -32,0 z M 1088,512 l 32,0 0,32 -32,0 z M 1120,512 l 32,0 0,32 -32,0 z M 1152,512 l 32,0 0,32 -32,0 z M 0,544 l 32,0 0,32 -32,0 z M 32,544 l 32,0 0,32 -32,0 z M 160,544 l 32,0 0,32 -32,0 z M 320,544 l 32,0 0,32 -32,0 z M 352,544 l 32,0 0,32 -32,0 z M 384,544 l 32,0 0,32 -32,0 z M 480,544 l 32,0 0,32 -32,0 z M 512,544 l 32,0 0,32 -32,0 z M 544,544 l 32,0 0,32 -32,0 z M 576,544 l 32,0 0,32 -32,0 z M 672,544 l 32,0 0,32 -32,0 z M 704,544 l 32,0 0,32 -32,0 z M 768,544 l 32,0 0,32 -32,0 z M 800,544 l 32,0 0,32 -32,0 z M 832,544 l 32,0 0,32 -32,0 z M 896,544 l 32,0 0,32 -32,0 z M 928,544 l 32,0 0,32 -32,0 z M 992,544 l 32,0 0,32 -32,0 z M 1056,544 l 32,0 0,32 -32,0 z M 1088,544 l 32,0 0,32 -32,0 z M 0,576 l 32,0 0,32 -32,0 z M 128,576 l 32,0 0,32 -32,0 z M 192,576 l 32,0 0,32 -32,0 z M 224,576 l 32,0 0,32 -32,0 z M 256,576 l 32,0 0,32 -32,0 z M 384,576 l 32,0 0,32 -32,0 z M 416,576 l 32,0 0,32 -32,0 z M 480,576 l 32,0 0,32 -32,0 z M 512,576 l 32,0 0,32 -32,0 z M 576,576 l 32,0 0,32 -32,0 z M 608,576 l 32,0 0,32 -32,0 z M 640,576 l 32,0 0,32 -32,0 z M 672,576 l 32,0 0,32 -32,0 z M 704,576 l 32,0 0,32 -32,0 z M 768,576 l 32,0 0,32 -32,0 z M 832,576 l 32,0 0,32 -32,0 z M 864,576 l 32,0 0,32 -32,0 z M 928,576 l 32,0 0,32 -32,0 z M 1024,576 l 32,0 0,32 -32,0 z M 1088,576 l 32,0 0,32 -32,0 z M 1120,576 l 32,0 0,32 -32,0 z M 1152,576 l 32,0 0,32 -32,0 z M 0,608 l 32,0 0,32 -32,0 z M 32,608 l 32,0 0,32 -32,0 z M 64,608 l 32,0 0,32 -32,0 z M 96,608 l 32,0 0,32 -32,0 z M 128,608 l 32,0 0,32 -32,0 z M 288,608 l 32,0 0,32 -32,0 z M 352,608 l 32,0 0,32 -32,0 z M 416,608 l 32,0 0,32 -32,0 z M 544,608 l 32,0 0,32 -32,0 z M 640,608 l 32,0 0,32 -32,0 z M 704,608 l 32,0 0,32 -32,0 z M 736,608 l 32,0 0,32 -32,0 z M 768,608 l 32,0 0,32 -32,0 z M 832,608 l 32,0 0,32 -32,0 z M 896,608 l 32,0 0,32 -32,0 z M 928,608 l 32,0 0,32 -32,0 z M 1120,608 l 32,0 0,32 -32,0 z M 64,640 l 32,0 0,32 -32,0 z M 160,640 l 32,0 0,32 -32,0 z M 192,640 l 32,0 0,32 -32,0 z M 224,640 l 32,0 0,32 -32,0 z M 256,640 l 32,0 0,32 -32,0 z M 288,640 l 32,0 0,32 -32,0 z M 384,640 l 32,0 0,32 -32,0 z M 448,640 l 32,0 0,32 -32,0 z M 512,640 l 32,0 0,32 -32,0 z M 608,640 l 32,0 0,32 -32,0 z M 672,640 l 32,0 0,32 -32,0 z M 704,640 l 32,0 0,32 -32,0 z M 736,640 l 32,0 0,32 -32,0 z M 768,640 l 32,0 0,32 -32,0 z M 800,640 l 32,0 0,32 -32,0 z M 832,640 l 32,0 0,32 -32,0 z M 960,640 l 32,0 0,32 -32,0 z M 992,640 l 32,0 0,32 -32,0 z M 1024,640 l 32,0 0,32 -32,0 z M 1056,640 l 32,0 0,32 -32,0 z M 1088,640 l 32,0 0,32 -32,0 z M 0,672 l 32,0 0,32 -32,0 z M 32,672 l 32,0 0,32 -32,0 z M 64,672 l 32,0 0,32 -32,0 z M 160,672 l 32,0 0,32 -32,0 z M 320,672 l 32,0 0,32 -32,0 z M 352,672 l 32,0 0,32 -32,0 z M 384,672 l 32,0 0,32 -32,0 z M 416,672 l 32,0 0,32 -32,0 z M 448,672 l 32,0 0,32 -32,0 z M 480,672 l 32,0 0,32 -32,0 z M 512,672 l 32,0 0,32 -32,0 z M 544,672 l 32,0 0,32 -32,0 z M 576,672 l 32,0 0,32 -32,0 z M 608,672 l 32,0 0,32 -32,0 z M 736,672 l 32,0 0,32 -32,0 z M 768,672 l 32,0 0,32 -32,0 z M 992,672 l 32,0 0,32 -32,0 z M 1056,672 l 32,0 0,32 -32,0 z M 96,704 l 32,0 0,32 -32,0 z M 192,704 l 32,0 0,32 -32,0 z M 288,704 l 32,0 0,32 -32,0 z M 320,704 l 32,0 0,32 -32,0 z M 384,704 l 32,0 0,32 -32,0 z M 416,704 l 32,0 0,32 -32,0 z M 480,704 l 32,0 0,32 -32,0 z M 512,704 l 32,0 0,32 -32,0 z M 544,704 l 32,0 0,32 -32,0 z M 576,704 l 32,0 0,32 -32,0 z M 640,704 l 32,0 0,32 -32,0 z M 832,704 l 32,0 0,32 -32,0 z M 864,704 l 32,0 0,32 -32,0 z M 928,704 l 32,0 0,32 -32,0 z M 960,704 l 32,0 0,32 -32,0 z M 1056,704 l 32,0 0,32 -32,0 z M 1088,704 l 32,0 0,32 -32,0 z M 1120,704 l 32,0 0,32 -32,0 z M 1152,704 l 32,0 0,32 -32,0 z M 64,736 l 32,0 0,32 -32,0 z M 96,736 l 32,0 0,32 -32,0 z M 128,736 l 32,0 0,32 -32,0 z M 160,736 l 32,0 0,32 -32,0 z M 288,736 l 32,0 0,32 -32,0 z M 320,736 l 32,0 0,32 -32,0 z M 352,736 l 32,0 0,32 -32,0 z M 384,736 l 32,0 0,32 -32,0 z M 512,736 l 32,0 0,32 -32,0 z M 576,736 l 32,0 0,32 -32,0 z M 672,736 l 32,0 0,32 -32,0 z M 928,736 l 32,0 0,32 -32,0 z M 960,736 l 32,0 0,32 -32,0 z M 992,736 l 32,0 0,32 -32,0 z M 1056,736 l 32,0 0,32 -32,0 z M 32,768 l 32,0 0,32 -32,0 z M 96,768 l 32,0 0,32 -32,0 z M 160,768 l 32,0 0,32 -32,0 z M 192,768 l 32,0 0,32 -32,0 z M 224,768 l 32,0 0,32 -32,0 z M 256,768 l 32,0 0,32 -32,0 z M 288,768 l 32,0 0,32 -32,0 z M 320,768 l 32,0 0,32 -32,0 z M 352,768 l 32,0 0,32 -32,0 z M 416,768 l 32,0 0,32 -32,0 z M 448,768 l 32,0 0,32 -32,0 z M 480,768 l 32,0 0,32 -32,0 z M 544,768 l 32,0 0,32 -32,0 z M 608,768 l 32,0 0,32 -32,0 z M 640,768 l 32,0 0,32 -32,0 z M 672,768 l 32,0 0,32 -32,0 z M 736,768 l 32,0 0,32 -32,0 z M 768,768 l 32,0 0,32 -32,0 z M 800,768 l 32,0 0,32 -32,0 z M 928,768 l 32,0 0,32 -32,0 z M 960,768 l 32,0 0,32 -32,0 z M 1024,768 l 32,0 0,32 -32,0 z M 1056,768 l 32,0 0,32 -32,0 z M 1088,768 l 32,0 0,32 -32,0 z M 1152,768 l 32,0 0,32 -32,0 z M 0,800 l 32,0 0,32 -32,0 z M 32,800 l 32,0 0,32 -32,0 z M 288,800 l 32,0 0,32 -32,0 z M 384,800 l 32,0 0,32 -32,0 z M 448,800 l 32,0 0,32 -32,0 z M 608,800 l 32,0 0,32 -32,0 z M 640,800 l 32,0 0,32 -32,0 z M 800,800 l 32,0 0,32 -32,0 z M 896,800 l 32,0 0,32 -32,0 z M 928,800 l 32,0 0,32 -32,0 z M 992,800 l 32,0 0,32 -32,0 z M 1056,800 l 32,0 0,32 -32,0 z M 1120,800 l 32,0 0,32 -32,0 z M 0,832 l 32,0 0,32 -32,0 z M 96,832 l 32,0 0,32 -32,0 z M 192,832 l 32,0 0,32 -32,0 z M 384,832 l 32,0 0,32 -32,0 z M 448,832 l 32,0 0,32 -32,0 z M 576,832 l 32,0 0,32 -32,0 z M 608,832 l 32,0 0,32 -32,0 z M 672,832 l 32,0 0,32 -32,0 z M 736,832 l 32,0 0,32 -32,0 z M 768,832 l 32,0 0,32 -32,0 z M 800,832 l 32,0 0,32 -32,0 z M 832,832 l 32,0 0,32 -32,0 z M 864,832 l 32,0 0,32 -32,0 z M 960,832 l 32,0 0,32 -32,0 z M 1088,832 l 32,0 0,32 -32,0 z M 1120,832 l 32,0 0,32 -32,0 z M 1152,832 l 32,0 0,32 -32,0 z M 0,864 l 32,0 0,32 -32,0 z M 64,864 l 32,0 0,32 -32,0 z M 96,864 l 32,0 0,32 -32,0 z M 256,864 l 32,0 0,32 -32,0 z M 384,864 l 32,0 0,32 -32,0 z M 416,864 l 32,0 0,32 -32,0 z M 480,864 l 32,0 0,32 -32,0 z M 544,864 l 32,0 0,32 -32,0 z M 608,864 l 32,0 0,32 -32,0 z M 640,864 l 32,0 0,32 -32,0 z M 672,864 l 32,0 0,32 -32,0 z M 704,864 l 32,0 0,32 -32,0 z M 736,864 l 32,0 0,32 -32,0 z M 928,864 l 32,0 0,32 -32,0 z M 992,864 l 32,0 0,32 -32,0 z M 1152,864 l 32,0 0,32 -32,0 z M 0,896 l 32,0 0,32 -32,0 z M 128,896 l 32,0 0,32 -32,0 z M 160,896 l 32,0 0,32 -32,0 z M 192,896 l 32,0 0,32 -32,0 z M 256,896 l 32,0 0,32 -32,0 z M 288,896 l 32,0 0,32 -32,0 z M 320,896 l 32,0 0,32 -32,0 z M 352,896 l 32,0 0,32 -32,0 z M 384,896 l 32,0 0,32 -32,0 z M 416,896 l 32,0 0,32 -32,0 z M 448,896 l 32,0 0,32 -32,0 z M 480,896 l 32,0 0,32 -32,0 z M 512,896 l 32,0 0,32 -32,0 z M 544,896 l 32,0 0,32 -32,0 z M 672,896 l 32,0 0,32 -32,0 z M 736,896 l 32,0 0,32 -32,0 z M 800,896 l 32,0 0,32 -32,0 z M 832,896 l 32,0 0,32 -32,0 z M 864,896 l 32,0 0,32 -32,0 z M 896,896 l 32,0 0,32 -32,0 z M 928,896 l 32,0 0,32 -32,0 z M 960,896 l 32,0 0,32 -32,0 z M 992,896 l 32,0 0,32 -32,0 z M 1024,896 l 32,0 0,32 -32,0 z M 1088,896 l 32,0 0,32 -32,0 z M 256,928 l 32,0 0,32 -32,0 z M 320,928 l 32,0 0,32 -32,0 z M 352,928 l 32,0 0,32 -32,0 z M 384,928 l 32,0 0,32 -32,0 z M 416,928 l 32,0 0,32 -32,0 z M 576,928 l 32,0 0,32 -32,0 z M 640,928 l 32,0 0,32 -32,0 z M 672,928 l 32,0 0,32 -32,0 z M 736,928 l 32,0 0,32 -32,0 z M 864,928 l 32,0 0,32 -32,0 z M 896,928 l 32,0 0,32 -32,0 z M 1024,928 l 32,0 0,32 -32,0 z M 1120,928 l 32,0 0,32 -32,0 z M 0,960 l 32,0 0,32 -32,0 z M 32,960 l 32,0 0,32 -32,0 z M 64,960 l 32,0 0,32 -32,0 z M 96,960 l 32,0 0,32 -32,0 z M 128,960 l 32,0 0,32 -32,0 z M 160,960 l 32,0 0,32 -32,0 z M 192,960 l 32,0 0,32 -32,0 z M 288,960 l 32,0 0,32 -32,0 z M 320,960 l 32,0 0,32 -32,0 z M 384,960 l 32,0 0,32 -32,0 z M 416,960 l 32,0 0,32 -32,0 z M 480,960 l 32,0 0,32 -32,0 z M 512,960 l 32,0 0,32 -32,0 z M 544,960 l 32,0 0,32 -32,0 z M 672,960 l 32,0 0,32 -32,0 z M 704,960 l 32,0 0,32 -32,0 z M 832,960 l 32,0 0,32 -32,0 z M 896,960 l 32,0 0,32 -32,0 z M 960,960 l 32,0 0,32 -32,0 z M 1024,960 l 32,0 0,32 -32,0 z M 1056,960 l 32,0 0,32 -32,0 z M 1120,960 l 32,0 0,32 -32,0 z M 1152,960 l 32,0 0,32 -32,0 z M 0,992 l 32,0 0,32 -32,0 z M 192,992 l 32,0 0,32 -32,0 z M 384,992 l 32,0 0,32 -32,0 z M 416,992 l 32,0 0,32 -32,0 z M 448,992 l 32,0 0,32 -32,0 z M 480,992 l 32,0 0,32 -32,0 z M 544,992 l 32,0 0,32 -32,0 z M 576,992 l 32,0 0,32 -32,0 z M 608,992 l 32,0 0,32 -32,0 z M 640,992 l 32,0 0,32 -32,0 z M 704,992 l 32,0 0,32 -32,0 z M 896,992 l 32,0 0,32 -32,0 z M 1024,992 l 32,0 0,32 -32,0 z M 1120,992 l 32,0 0,32 -32,0 z M 0,1024 l 32,0 0,32 -32,0 z M 64,1024 l 32,0 0,32 -32,0 z M 96,1024 l 32,0 0,32 -32,0 z M 128,1024 l 32,0 0,32 -32,0 z M 192,1024 l 32,0 0,32 -32,0 z M 256,1024 l 32,0 0,32 -32,0 z M 352,1024 l 32,0 0,32 -32,0 z M 416,1024 l 32,0 0,32 -32,0 z M 448,1024 l 32,0 0,32 -32,0 z M 576,1024 l 32,0 0,32 -32,0 z M 672,1024 l 32,0 0,32 -32,0 z M 704,1024 l 32,0 0,32 -32,0 z M 736,1024 l 32,0 0,32 -32,0 z M 768,1024 l 32,0 0,32 -32,0 z M 800,1024 l 32,0 0,32 -32,0 z M 832,1024 l 32,0 0,32 -32,0 z M 864,1024 l 32,0 0,32 -32,0 z M 896,1024 l 32,0 0,32 -32,0 z M 928,1024 l 32,0 0,32 -32,0 z M 960,1024 l 32,0 0,32 -32,0 z M 992,1024 l 32,0 0,32 -32,0 z M 1024,1024 l 32,0 0,32 -32,0 z M 1088,1024 l 32,0 0,32 -32,0 z M 1120,1024 l 32,0 0,32 -32,0 z M 0,1056 l 32,0 0,32 -32,0 z M 64,1056 l 32,0 0,32 -32,0 z M 96,1056 l 32,0 0,32 -32,0 z M 128,1056 l 32,0 0,32 -32,0 z M 192,1056 l 32,0 0,32 -32,0 z M 256,1056 l 32,0 0,32 -32,0 z M 288,1056 l 32,0 0,32 -32,0 z M 320,1056 l 32,0 0,32 -32,0 z M 352,1056 l 32,0 0,32 -32,0 z M 384,1056 l 32,0 0,32 -32,0 z M 448,1056 l 32,0 0,32 -32,0 z M 480,1056 l 32,0 0,32 -32,0 z M 512,1056 l 32,0 0,32 -32,0 z M 576,1056 l 32,0 0,32 -32,0 z M 640,1056 l 32,0 0,32 -32,0 z M 672,1056 l 32,0 0,32 -32,0 z M 704,1056 l 32,0 0,32 -32,0 z M 768,1056 l 32,0 0,32 -32,0 z M 800,1056 l 32,0 0,32 -32,0 z M 896,1056 l 32,0 0,32 -32,0 z M 960,1056 l 32,0 0,32 -32,0 z M 1024,1056 l 32,0 0,32 -32,0 z M 1088,1056 l 32,0 0,32 -32,0 z M 0,1088 l 32,0 0,32 -32,0 z M 64,1088 l 32,0 0,32 -32,0 z M 96,1088 l 32,0 0,32 -32,0 z M 128,1088 l 32,0 0,32 -32,0 z M 192,1088 l 32,0 0,32 -32,0 z M 256,1088 l 32,0 0,32 -32,0 z M 288,1088 l 32,0 0,32 -32,0 z M 384,1088 l 32,0 0,32 -32,0 z M 512,1088 l 32,0 0,32 -32,0 z M 576,1088 l 32,0 0,32 -32,0 z M 672,1088 l 32,0 0,32 -32,0 z M 704,1088 l 32,0 0,32 -32,0 z M 800,1088 l 32,0 0,32 -32,0 z M 832,1088 l 32,0 0,32 -32,0 z M 896,1088 l 32,0 0,32 -32,0 z M 928,1088 l 32,0 0,32 -32,0 z M 992,1088 l 32,0 0,32 -32,0 z M 1088,1088 l 32,0 0,32 -32,0 z M 1152,1088 l 32,0 0,32 -32,0 z M 0,1120 l 32,0 0,32 -32,0 z M 192,1120 l 32,0 0,32 -32,0 z M 288,1120 l 32,0 0,32 -32,0 z M 352,1120 l 32,0 0,32 -32,0 z M 384,1120 l 32,0 0,32 -32,0 z M 640,1120 l 32,0 0,32 -32,0 z M 736,1120 l 32,0 0,32 -32,0 z M 832,1120 l 32,0 0,32 -32,0 z M 864,1120 l 32,0 0,32 -32,0 z M 896,1120 l 32,0 0,32 -32,0 z M 960,1120 l 32,0 0,32 -32,0 z M 1024,1120 l 32,0 0,32 -32,0 z M 1152,1120 l 32,0 0,32 -32,0 z M 0,1152 l 32,0 0,32 -32,0 z M 32,1152 l 32,0 0,32 -32,0 z M 64,1152 l 32,0 0,32 -32,0 z M 96,1152 l 32,0 0,32 -32,0 z M 128,1152 l 32,0 0,32 -32,0 z M 160,1152 l 32,0 0,32 -32,0 z M 192,1152 l 32,0 0,32 -32,0 z M 288,1152 l 32,0 0,32 -32,0 z M 320,1152 l 32,0 0,32 -32,0 z M 352,1152 l 32,0 0,32 -32,0 z M 384,1152 l 32,0 0,32 -32,0 z M 416,1152 l 32,0 0,32 -32,0 z M 480,1152 l 32,0 0,32 -32,0 z M 512,1152 l 32,0 0,32 -32,0 z M 576,1152 l 32,0 0,32 -32,0 z M 640,1152 l 32,0 0,32 -32,0 z M 672,1152 l 32,0 0,32 -32,0 z M 704,1152 l 32,0 0,32 -32,0 z M 736,1152 l 32,0 0,32 -32,0 z M 768,1152 l 32,0 0,32 -32,0 z M 800,1152 l 32,0 0,32 -32,0 z M 864,1152 l 32,0 0,32 -32,0 z M 928,1152 l 32,0 0,32 -32,0 z M 992,1152 l 32,0 0,32 -32,0 z M 1024,1152 l 32,0 0,32 -32,0 z M 1056,1152 l 32,0 0,32 -32,0 z M 1088,1152 l 32,0 0,32 -32,0 z M 1120,1152 l 32,0 0,32 -32,0 z M 1152,1152 l 32,0 0,32 -32,0 z " />
	</g>
</svg>
